<svg xmlns="http://www.w3.org/2000/svg" viewBox="0 0 3000 3000" fill="#eee">
	<path d="M1027.91,1499.999c0-260.791,211.356-472.261,472.147-472.261s472.261,211.47,472.261,472.261s-211.47,472.262-472.261,472.262S1027.91,1760.79,1027.91,1499.999 M772.613,1499.999c0,401.771,325.674,727.445,727.444,727.445s727.444-325.674,727.444-727.445c0-401.771-325.674-727.445-727.444-727.445S772.612,1098.229,772.613,1499.999 M2086.294,743.718c0,93.834,76.097,170.046,170.045,170.046c93.835,0,170.047-76.212,170.047-170.046s-76.098-169.932-170.047-169.932C2162.391,573.786,2086.294,649.884,2086.294,743.718 M927.667,2653.132c-138.118-6.294-213.187-29.295-263.079-48.748c-66.141-25.747-113.287-56.415-162.951-105.964c-49.549-49.549-80.331-96.696-105.964-162.838c-19.453-49.892-42.455-124.958-48.748-263.079c-6.866-149.335-8.239-194.192-8.239-572.504c0-378.313,1.487-423.056,8.239-572.504c6.293-138.119,29.409-213.072,48.748-263.079c25.747-66.143,56.415-113.288,105.964-162.951c49.55-49.55,96.694-80.332,162.951-105.965c49.893-19.453,124.961-42.454,263.079-48.748c149.335-6.866,194.192-8.239,572.391-8.239c378.313,0,423.056,1.488,572.504,8.239c138.12,6.294,213.072,29.409,263.078,48.748c66.145,25.633,113.289,56.415,162.953,105.965c49.549,49.549,80.217,96.809,105.964,162.951c19.454,49.893,42.454,124.96,48.748,263.079c6.866,149.448,8.239,194.191,8.239,572.504c0,378.198-1.373,423.056-8.239,572.504c-6.294,138.121-29.409,213.188-48.748,263.079c-25.747,66.142-56.415,113.289-105.964,162.838c-49.55,49.549-96.809,80.217-162.953,105.964c-49.891,19.453-124.958,42.454-263.078,48.748c-149.333,6.866-194.19,8.24-572.504,8.24C1121.859,2661.372,1077.002,2659.998,927.667,2653.132 M915.995,91.912c-150.82,6.866-253.81,30.782-343.868,65.798c-93.147,36.161-172.105,84.68-250.949,163.41c-78.729,78.729-127.249,157.688-163.41,250.949c-35.016,90.059-58.932,193.048-65.798,343.868c-6.979,151.051-8.582,199.341-8.582,584.062c0,384.722,1.603,433.012,8.582,584.063c6.866,150.822,30.782,253.811,65.798,343.868c36.161,93.148,84.566,172.221,163.41,250.949c78.729,78.729,157.688,127.134,250.949,163.409c90.173,35.018,193.048,58.933,343.868,65.799c151.166,6.866,199.341,8.583,584.063,8.583c384.835,0,433.011-1.603,584.062-8.583c150.822-6.866,253.811-30.781,343.868-65.799c93.148-36.275,172.105-84.68,250.949-163.409c78.73-78.729,127.135-157.801,163.41-250.949c35.017-90.058,59.048-193.046,65.799-343.868c6.865-151.165,8.467-199.341,8.467-584.063c0-384.721-1.602-433.012-8.467-584.062c-6.867-150.82-30.782-253.811-65.799-343.869c-36.275-93.147-84.68-172.105-163.41-250.949c-78.729-78.729-157.801-127.248-250.834-163.409c-90.173-35.016-193.161-59.047-343.869-65.798c-151.051-6.866-199.341-8.582-584.062-8.582C1115.336,83.33,1067.161,84.932,915.995,91.912" />
</svg>
