<?xml version="1.0" encoding="UTF-8" standalone="no"?>
<svg
   xmlns:dc="http://purl.org/dc/elements/1.1/"
   xmlns:cc="http://creativecommons.org/ns#"
   xmlns:rdf="http://www.w3.org/1999/02/22-rdf-syntax-ns#"
   xmlns:svg="http://www.w3.org/2000/svg"
   xmlns="http://www.w3.org/2000/svg"
   xmlns:sodipodi="http://sodipodi.sourceforge.net/DTD/sodipodi-0.dtd"
   xmlns:inkscape="http://www.inkscape.org/namespaces/inkscape"
   width="32"
   height="32"
   viewBox="0 0 32 32"
   version="1.1"
   id="svg16"
   inkscape:version="1.0.2-2 (e86c870879, 2021-01-15)"
   sodipodi:docname="contr.svg">
  <defs
     id="defs10" />
  <sodipodi:namedview
     id="base"
     pagecolor="#000000"
     bordercolor="#666666"
     borderopacity="1.0"
     inkscape:pageopacity="1"
     inkscape:pageshadow="2"
     inkscape:zoom="25.84375"
     inkscape:cx="16"
     inkscape:cy="16"
     inkscape:document-units="mm"
     inkscape:current-layer="layer1"
     inkscape:document-rotation="0"
     showgrid="true"
     units="px"
     inkscape:pagecheckerboard="false"
     inkscape:showpageshadow="false"
     showguides="false"
     inkscape:window-width="1920"
     inkscape:window-height="1017"
     inkscape:window-x="-8"
     inkscape:window-y="-8"
     inkscape:window-maximized="1"
     viewbox-height="32">
    <inkscape:grid
       type="xygrid"
       id="grid18"
       color="#c8c8c8"
       opacity="0.07843137"
       empcolor="#c8c8c8"
       empopacity="0.16078431"
       empspacing="8" />
  </sodipodi:namedview>
  <metadata
     id="metadata13">
    <rdf:RDF>
      <cc:Work
         rdf:about="">
        <dc:format>image/svg+xml</dc:format>
        <dc:type
           rdf:resource="http://purl.org/dc/dcmitype/StillImage" />
        <dc:title></dc:title>
      </cc:Work>
    </rdf:RDF>
  </metadata>
  <g
     inkscape:label="Calque 1"
     inkscape:groupmode="layer"
     id="layer1">
    <path
       fill-rule="evenodd"
       clip-rule="evenodd"
       d="M 16.000001,0 C 7.1600003,0 0,7.1600003 0,16.000001 0,23.08 4.58,29.06 10.94,31.180001 c 0.8,0.140001 1.100001,-0.339998 1.100001,-0.76 0,-0.38 -0.01999,-1.640001 -0.01999,-2.98 -4.0200065,0.74 -5.0600066,-0.98 -5.3800067,-1.88 -0.18,-0.460001 -0.9599999,-1.880001 -1.64,-2.26 C 4.4399992,23 3.6399992,22.26 4.9799995,22.24 6.2399998,22.22 7.1399996,23.4 7.4399996,23.88 8.8799994,26.3 11.18,25.620001 12.1,25.200001 12.24,24.16 12.659999,23.46 13.12,23.06 9.5599995,22.66 5.8399996,21.28 5.8399996,15.16 c 0,-1.74 0.62,-3.18 1.64,-4.3 -0.1599989,-0.4 -0.7200001,-2.0399999 0.1599985,-4.24 0,0 1.3400001,-0.4200001 4.3999999,1.6400002 1.28,-0.3599997 2.64,-0.5400003 4,-0.5400003 1.36,0 2.72,0.18 4,0.5400003 3.06,-2.0799999 4.4,-1.6400002 4.4,-1.6400002 0.880001,2.2000001 0.320001,3.84 0.159999,4.24 1.02,1.12 1.64,2.54 1.64,4.3 0,6.140001 -3.74,7.5 -7.3,7.9 0.58,0.500001 1.08,1.46 1.08,2.96 0,2.140001 -0.02,3.86 -0.02,4.400001 0,0.42 0.3,0.919999 1.100001,0.76 C 27.420002,29.06 32,23.06 32,16.000001 32,7.1600003 24.840001,0 16.000001,0 Z"
       fill="#1b1f23"
       id="path1412"
       style="fill:#88ff88;fill-opacity:0.266667;stroke-width:2" />
  </g>
</svg>
