<?xml version="1.0" encoding="UTF-8" standalone="no"?>
<svg
   xmlns:dc="http://purl.org/dc/elements/1.1/"
   xmlns:cc="http://creativecommons.org/ns#"
   xmlns:rdf="http://www.w3.org/1999/02/22-rdf-syntax-ns#"
   xmlns:svg="http://www.w3.org/2000/svg"
   xmlns="http://www.w3.org/2000/svg"
   xmlns:sodipodi="http://sodipodi.sourceforge.net/DTD/sodipodi-0.dtd"
   xmlns:inkscape="http://www.inkscape.org/namespaces/inkscape"
   width="32"
   height="32"
   viewBox="0 0 8.4666664 8.4666669"
   version="1.1"
   id="svg16"
   sodipodi:docname="help.svg"
   inkscape:version="1.0.2-2 (e86c870879, 2021-01-15)">
  <defs
     id="defs10" />
  <sodipodi:namedview
     id="base"
     pagecolor="#000000"
     bordercolor="#666666"
     borderopacity="1.0"
     inkscape:pageopacity="1"
     inkscape:pageshadow="2"
     inkscape:zoom="25.84375"
     inkscape:cx="15.071342"
     inkscape:cy="16"
     inkscape:document-units="mm"
     inkscape:current-layer="layer1"
     inkscape:document-rotation="0"
     showgrid="true"
     units="px"
     inkscape:pagecheckerboard="false"
     inkscape:showpageshadow="false"
     showguides="false"
     inkscape:window-width="1920"
     inkscape:window-height="1017"
     inkscape:window-x="-8"
     inkscape:window-y="-8"
     inkscape:window-maximized="1">
    <inkscape:grid
       type="xygrid"
       id="grid18"
       color="#c8c8c8"
       opacity="0.07843137"
       empcolor="#c8c8c8"
       empopacity="0.16078431"
       empspacing="8" />
  </sodipodi:namedview>
  <metadata
     id="metadata13">
    <rdf:RDF>
      <cc:Work
         rdf:about="">
        <dc:format>image/svg+xml</dc:format>
        <dc:type
           rdf:resource="http://purl.org/dc/dcmitype/StillImage" />
        <dc:title></dc:title>
      </cc:Work>
    </rdf:RDF>
  </metadata>
  <g
     inkscape:label="Calque 1"
     inkscape:groupmode="layer"
     id="layer1">
    <path
       id="path832"
       style="fill:#00ffff;fill-opacity:0.25098;stroke-width:30.857"
       d="M 16 0 A 15.999999 15.999999 0 0 0 0 16 A 15.999999 15.999999 0 0 0 16 32 A 15.999999 15.999999 0 0 0 32 16 A 15.999999 15.999999 0 0 0 16 0 z M 16 2 A 14 14 0 0 1 30 16 A 14 14 0 0 1 16 30 A 14 14 0 0 1 2 16 A 14 14 0 0 1 16 2 z "
       transform="scale(0.26458333)" />
    <path
       id="path839"
       style="fill:#00ffff;fill-opacity:0.25098;stroke-width:30.857"
       d="M 16 4 A 7.9999994 7.9999994 0 0 0 8 12 L 10 12 A 5.9999997 5.9999997 0 0 1 16 6 A 5.9999997 5.9999997 0 0 1 22 12 A 5.9999997 5.9999997 0 0 1 16 18 L 15 18 L 15 24 L 17 24 L 17 19.9375 A 7.9999994 7.9999994 0 0 0 24 12 A 7.9999994 7.9999994 0 0 0 16 4 z "
       transform="scale(0.26458333)" />
    <circle
       style="fill:#00ffff;fill-opacity:0.25098;stroke-width:8.16425"
       id="path859"
       cx="4.2333331"
       cy="7.1437497"
       r="0.52916664" />
  </g>
</svg>
