<svg xmlns="http://www.w3.org/2000/svg" viewBox="32 32" width="32" height="32">
  <path fill="#f884" d="m0 0h2v1h-1v3h1v1h-2zm3 0h3v5h-3zm1 1v3h1v-3zm3-1h3v3h-2v2h-1zm1 1v1h1v-1zm3-1h1v2h1v-2h1v3h-1v2h-1v-2h-1zm4 0h3v2h-1v-1h-1v1h1v3h1v-2h-2v2h-1zm4 0h1v5h-1zm2 0h3v1h-2v3h1v-2h1v3h-3zm4 0h1v2h1v-2h1v5h-1v-2h-1v2h-1zm4 0h3v1h-1h0v4h-1v-4h-1zm-29 6h3v3h-2v1h2v1h-3v-3h2v-1h-2zm4 0h3v5h-3zm1 1v3h1v-3zm3-1h3v3h-2v1h2v1h-3v-3h2v-1h-2zm4 0h1v5h-1zm-12 6h3v2h-1v-1h-1v1h1v1h-1v1h1v-1h1v2h-3zm4 0h3v5h-1v-2h-1v2h-1zm1 1v1h1v-1zm3-1h3v2h-1v-1h-1v1h1v3h1v-2h-2v2h-1zm4 0h3v2h-1v-1h-1v1h1v3h1v-2h-2v2h-1zm4 0h1v2h1v-2h1v3h-1v2h-1v-2h-1zm5 0h3v1h-2v3h2v1h-3zm4 0h3v5h-1v-2h-1v2h-1zm1 1v1h1v-1zm3-1h3v3h-2v2h-1zm1 1v1h1v-1zm-.5-7a1 1 0 010 5a1 1 0 010-5m0 .5a1 1 0 000 4a1 1 0 000-4m1 2.5a1.1 1.1 0 110-1h1v1zm-16.5-1h12v1h-12zm-14 13h1v1h1v1h1v-1h1v-1h1v5h-1v-3h-1v1h-1v-1h-1v3h-1zm6 0h1v5h-1zm2 0h3v1h-1v4h-1v-4h-1zm-8 6h1v4h2v1h-3zm4 0h1v5h-1zm2 0h3v1h-2v3h2v1h-3zm4 0h3v1h-2v1h1v1h-1v1h2v1h-3zm4 0h1v1h1v1h1v-2h1v5h-1v-2h-1v-1h-1v3h-1zm5 0h3v1h-2v1h2v3h-3v-1h2v-1h-2zl0 0m4 0h3v1h-2v1h1v1h-1v1h2v1h-3zm-23-9h32v2h-32zm18 3h1v5h-1zm2 0h1v3h-1zm2 0h1v5h-1zm2 0h1v1h-1zm0 2h1v3h-1zm2-2h3v1h-3zm0 2h1v3h-1zm-9-2a4 4 0 000 5h-1a4 4 0 010-5zm14 0a4 4 0 010 5h-1a4 4 0 000-5zm-4 10h5v1h-5z"/>
</svg>
