<?xml version="1.0" encoding="UTF-8" standalone="no"?>
<svg
   xmlns:dc="http://purl.org/dc/elements/1.1/"
   xmlns:cc="http://creativecommons.org/ns#"
   xmlns:rdf="http://www.w3.org/1999/02/22-rdf-syntax-ns#"
   xmlns:svg="http://www.w3.org/2000/svg"
   xmlns="http://www.w3.org/2000/svg"
   xmlns:sodipodi="http://sodipodi.sourceforge.net/DTD/sodipodi-0.dtd"
   xmlns:inkscape="http://www.inkscape.org/namespaces/inkscape"
   width="32"
   height="32"
   viewBox="0 0 8.4666664 8.4666669"
   version="1.1"
   id="svg16"
   sodipodi:docname="bg_grn_wav.svg"
   inkscape:version="1.0.1 (0767f8302a, 2020-10-17)">
  <defs
     id="defs10" />
  <sodipodi:namedview
     id="base"
     pagecolor="#000000"
     bordercolor="#666666"
     borderopacity="1.0"
     inkscape:pageopacity="1"
     inkscape:pageshadow="2"
     inkscape:zoom="22.15625"
     inkscape:cx="16"
     inkscape:cy="16"
     inkscape:document-units="mm"
     inkscape:current-layer="layer1"
     inkscape:document-rotation="0"
     showgrid="true"
     units="px"
     inkscape:pagecheckerboard="false"
     inkscape:showpageshadow="false"
     showguides="false"
     inkscape:window-width="1280"
     inkscape:window-height="920"
     inkscape:window-x="0"
     inkscape:window-y="27"
     inkscape:window-maximized="1">
    <inkscape:grid
       type="xygrid"
       id="grid18"
       color="#c8c8c8"
       opacity="0.07843137"
       empcolor="#c8c8c8"
       empopacity="0.16078431"
       empspacing="8" />
  </sodipodi:namedview>
  <metadata
     id="metadata13">
    <rdf:RDF>
      <cc:Work
         rdf:about="">
        <dc:format>image/svg+xml</dc:format>
        <dc:type
           rdf:resource="http://purl.org/dc/dcmitype/StillImage" />
        <dc:title></dc:title>
      </cc:Work>
    </rdf:RDF>
  </metadata>
  <g
     inkscape:label="Calque 1"
     inkscape:groupmode="layer"
     id="layer1">
    <path
       id="path1546"
       style="fill:#00ff00;fill-opacity:0.25;stroke:none;stroke-width:0.999995"
       d="M 8,0 C 3.5817219,4.9705618e-7 5.5228445e-8,3.5817223 0,8 v 16 c 0,-4.418279 3.5817199,-8.000001 8,-8 4.371416,-5.01e-4 7.933858,3.507993 8,7.878906 h 0.002 c -0.001,0.04036 -0.0017,0.08073 -0.002,0.121094 0,4.418278 3.581722,8 8,8 4.418278,0 8,-3.581722 8,-8 V 8.1210938 C 31.933858,12.492007 28.371416,16.000501 24,16 19.58172,16.000001 16,12.418279 16,8 16,3.5817223 12.418278,4.9705618e-7 8,0 Z"
       transform="scale(0.26458333)"
       sodipodi:nodetypes="sccccccscccss" />
  </g>
</svg>
