<?xml version="1.0" encoding="UTF-8" standalone="no"?>
<svg
   xmlns:dc="http://purl.org/dc/elements/1.1/"
   xmlns:cc="http://creativecommons.org/ns#"
   xmlns:rdf="http://www.w3.org/1999/02/22-rdf-syntax-ns#"
   xmlns:svg="http://www.w3.org/2000/svg"
   xmlns="http://www.w3.org/2000/svg"
   xmlns:sodipodi="http://sodipodi.sourceforge.net/DTD/sodipodi-0.dtd"
   xmlns:inkscape="http://www.inkscape.org/namespaces/inkscape"
   inkscape:version="1.0 (4035a4fb49, 2020-05-01)"
   sodipodi:docname="bg_org_brx_fiv.svg"
   id="svg16"
   version="1.1"
   viewBox="0 0 8.4666664 8.4666669"
   height="32"
   width="32">
  <defs
     id="defs10" />
  <sodipodi:namedview
     inkscape:window-maximized="1"
     inkscape:window-y="-8"
     inkscape:window-x="-8"
     inkscape:window-height="1017"
     inkscape:window-width="1920"
     showguides="false"
     inkscape:showpageshadow="false"
     inkscape:pagecheckerboard="false"
     units="px"
     showgrid="true"
     inkscape:document-rotation="0"
     inkscape:current-layer="layer1"
     inkscape:document-units="mm"
     inkscape:cy="16"
     inkscape:cx="16"
     inkscape:zoom="22.15625"
     inkscape:pageshadow="2"
     inkscape:pageopacity="1"
     borderopacity="1.0"
     bordercolor="#666666"
     pagecolor="#000000"
     id="base">
    <inkscape:grid
       empspacing="8"
       empopacity="0.16078431"
       empcolor="#c8c8c8"
       opacity="0.07843137"
       color="#c8c8c8"
       id="grid18"
       type="xygrid" />
  </sodipodi:namedview>
  <metadata
     id="metadata13">
    <rdf:RDF>
      <cc:Work
         rdf:about="">
        <dc:format>image/svg+xml</dc:format>
        <dc:type
           rdf:resource="http://purl.org/dc/dcmitype/StillImage" />
        <dc:title></dc:title>
      </cc:Work>
    </rdf:RDF>
  </metadata>
  <g
     id="layer1"
     inkscape:groupmode="layer"
     inkscape:label="Calque 1">
    <path
       transform="scale(0.26458333)"
       d="M 0 1 L 0 15 L 12 15 C 13.662 15 15 13.662 15 12 L 15 4 C 15 2.3380002 13.662 1 12 1 L 0 1 z M 20 1 C 18.338 1 17 2.3380002 17 4 L 17 12 C 17 13.662 18.338 15 20 15 L 32 15 L 32 1 L 20 1 z M 4 17 C 2.338 17 1 18.338 1 20 L 1 28 C 1 29.662 2.338 31 4 31 L 28 31 C 29.662 31 31 29.662 31 28 L 31 20 C 31 18.338 29.662 17 28 17 L 4 17 z "
       style="fill:#ff8000;fill-opacity:0.25;stroke:none;stroke-width:0.999999"
       id="rect1800" />
  </g>
</svg>
