<?xml version="1.0" encoding="UTF-8" standalone="no"?>
<svg
   xmlns:dc="http://purl.org/dc/elements/1.1/"
   xmlns:cc="http://creativecommons.org/ns#"
   xmlns:rdf="http://www.w3.org/1999/02/22-rdf-syntax-ns#"
   xmlns:svg="http://www.w3.org/2000/svg"
   xmlns="http://www.w3.org/2000/svg"
   xmlns:sodipodi="http://sodipodi.sourceforge.net/DTD/sodipodi-0.dtd"
   xmlns:inkscape="http://www.inkscape.org/namespaces/inkscape"
   width="32"
   height="32"
   viewBox="0 0 8.4666664 8.4666669"
   version="1.1"
   id="svg16"
   sodipodi:docname="spotlight.svg"
   inkscape:version="1.0.2-2 (e86c870879, 2021-01-15)">
  <defs
     id="defs10" />
  <sodipodi:namedview
     id="base"
     pagecolor="#000000"
     bordercolor="#666666"
     borderopacity="1.0"
     inkscape:pageopacity="1"
     inkscape:pageshadow="2"
     inkscape:zoom="25.84375"
     inkscape:cx="16"
     inkscape:cy="16"
     inkscape:document-units="mm"
     inkscape:current-layer="layer1"
     inkscape:document-rotation="0"
     showgrid="true"
     units="px"
     inkscape:pagecheckerboard="false"
     inkscape:showpageshadow="false"
     showguides="false"
     inkscape:window-width="1920"
     inkscape:window-height="1017"
     inkscape:window-x="-8"
     inkscape:window-y="-8"
     inkscape:window-maximized="1">
    <inkscape:grid
       type="xygrid"
       id="grid18"
       color="#c8c8c8"
       opacity="0.07843137"
       empcolor="#c8c8c8"
       empopacity="0.16078431"
       empspacing="8" />
  </sodipodi:namedview>
  <metadata
     id="metadata13">
    <rdf:RDF>
      <cc:Work
         rdf:about="">
        <dc:format>image/svg+xml</dc:format>
        <dc:type
           rdf:resource="http://purl.org/dc/dcmitype/StillImage" />
        <dc:title></dc:title>
      </cc:Work>
    </rdf:RDF>
  </metadata>
  <g
     inkscape:label="Calque 1"
     inkscape:groupmode="layer"
     id="layer1">
    <path
       id="rect832"
       style="fill:#8000ff;fill-opacity:0.25098;stroke-width:30.857"
       d="M 15 0 L 15 5 L 14 5 C 12.892 5 12 5.892 12 7 L 12 12 L 0 24 L 12 24 C 12 26.209139 13.790861 28 16 28 C 18.209139 28 20 26.209139 20 24 L 32 24 L 20 12 L 20 7 C 20 5.892 19.108 5 18 5 L 17 5 L 17 0 L 15 0 z M 10 27 L 8 29 L 9 30 L 11 28 L 10 27 z M 22 27 L 21 28 L 23 30 L 24 29 L 22 27 z M 15 29 L 15 32 L 17 32 L 17 29 L 15 29 z "
       transform="scale(0.26458333)" />
  </g>
</svg>
