<?xml version="1.0" encoding="UTF-8" standalone="no"?>
<svg
   xmlns:dc="http://purl.org/dc/elements/1.1/"
   xmlns:cc="http://creativecommons.org/ns#"
   xmlns:rdf="http://www.w3.org/1999/02/22-rdf-syntax-ns#"
   xmlns:svg="http://www.w3.org/2000/svg"
   xmlns="http://www.w3.org/2000/svg"
   xmlns:sodipodi="http://sodipodi.sourceforge.net/DTD/sodipodi-0.dtd"
   xmlns:inkscape="http://www.inkscape.org/namespaces/inkscape"
   width="32"
   height="32"
   viewBox="0 0 8.4666664 8.4666669"
   version="1.1"
   id="svg16"
   inkscape:version="1.0.1 (0767f8302a, 2020-10-17)"
   sodipodi:docname="bg_red_cir_two.svg">
  <defs
     id="defs10" />
  <sodipodi:namedview
     id="base"
     pagecolor="#000000"
     bordercolor="#666666"
     borderopacity="1.0"
     inkscape:pageopacity="1"
     inkscape:pageshadow="2"
     inkscape:zoom="22.15625"
     inkscape:cx="16"
     inkscape:cy="16"
     inkscape:document-units="mm"
     inkscape:current-layer="layer1"
     inkscape:document-rotation="0"
     showgrid="true"
     units="px"
     inkscape:pagecheckerboard="false"
     inkscape:showpageshadow="false"
     showguides="false"
     inkscape:window-width="1280"
     inkscape:window-height="920"
     inkscape:window-x="0"
     inkscape:window-y="27"
     inkscape:window-maximized="1">
    <inkscape:grid
       type="xygrid"
       id="grid18"
       color="#c8c8c8"
       opacity="0.07843137"
       empcolor="#c8c8c8"
       empopacity="0.16078431"
       empspacing="8" />
  </sodipodi:namedview>
  <metadata
     id="metadata13">
    <rdf:RDF>
      <cc:Work
         rdf:about="">
        <dc:format>image/svg+xml</dc:format>
        <dc:type
           rdf:resource="http://purl.org/dc/dcmitype/StillImage" />
        <dc:title></dc:title>
      </cc:Work>
    </rdf:RDF>
  </metadata>
  <g
     inkscape:label="Calque 1"
     inkscape:groupmode="layer"
     id="layer1">
    <path
       id="path1299"
       style="fill:#ff0000;fill-opacity:0.25;stroke-width:0.999999"
       d="M 0 0 L 0 3 C 1.6568542 2.9999998 2.9999998 1.6568542 3 0 L 0 0 z M 8 0 C 3.581722 -3.313709e-07 -3.313709e-07 3.581722 0 8 C -3.313709e-07 12.418278 3.581722 16 8 16 C 12.418278 16 16 12.418278 16 8 C 16 3.581722 12.418278 -3.313709e-07 8 0 z M 13 0 C 13 1.6568542 14.343146 2.9999998 16 3 C 17.656854 2.9999998 19 1.6568542 19 0 L 13 0 z M 29 0 C 29 1.6568542 30.343146 3 32 3 L 32 0 L 29 0 z M 0 13 L 0 19 C 1.6568542 19 2.9999998 17.656854 3 16 C 2.9999998 14.343146 1.6568542 13 0 13 z M 15.949219 13 C 14.31223 13.027713 12.999766 14.362776 13 16 C 13 17.656854 14.343146 19 16 19 C 17.656854 19 19 17.656854 19 16 C 19 14.343146 17.656854 13 16 13 C 15.98307 12.999857 15.966149 12.999857 15.949219 13 z M 31.949219 13 C 30.31223 13.027713 28.999766 14.362776 29 16 C 29 17.656854 30.343146 19 32 19 L 32 13 C 31.98307 12.999857 31.966149 12.999857 31.949219 13 z M 24 16 A 7.9999997 7.9999997 0 0 0 16 24 A 7.9999997 7.9999997 0 0 0 24 32 A 7.9999997 7.9999997 0 0 0 32 24 A 7.9999997 7.9999997 0 0 0 24 16 z M 0 29 L 0 32 L 3 32 C 3 30.343146 1.6568542 29 0 29 z M 15.949219 29 C 14.31223 29.027713 12.999766 30.362776 13 32 L 19 32 C 19 30.343146 17.656854 29 16 29 C 15.98307 28.999857 15.966149 28.999857 15.949219 29 z M 31.949219 29 C 30.31223 29.027713 28.999766 30.362776 29 32 L 32 32 L 32 29 C 31.98307 28.999857 31.966149 28.999857 31.949219 29 z "
       transform="scale(0.26458333)" />
  </g>
</svg>
