<svg xmlns="http://www.w3.org/2000/svg" viewBox="0 0 813 799" fill="#f8a">
  <path d="m0 295 174-156q17-16 39-27l194-112 204 118q20 11 38 29l164 149-45 214q-5 27-16 52l-94 211-222 24q-36 4-72 0l-209-24-94-210q-9-17-12-37zm407-295-166 154q-21 18-43 31l-198 110 94 204q14 26 19 57l42 217 222-27q25-3 50 0l231 27 43-220q6-29 18-55l94-202-200-112q-22-12-39-28zm0 0 94 167c5 9 6 15 8 28l10 78 78-15c10-2 14-2 23-1l193 39q-184-10-250-10l-42 38q1 29-3 67q24 27 42 53l56 6q43-28 197-154l-134 144c-7 7-15 11-23 14l-68 32 34 63c6 10 10 17 12 28l24 196q-51-190-69-241l-49-27q-32 10-65 17q-16 29-37 57l12 55q40 33 208 139l-179-82c-9-5-15-11-21-18l-51-55-55 57c-6 7-12 12-21 17l-176 81q167-106 208-139l11-56q-20-26-36-56q-35-7-66-18l-49 29q-22 62-68 240l24-196c1-9 4-16 10-24l36-66-70-34c-8-3-15-7-21-12l-134-146q154 127 195 155l58-6q19-27 42-52q-4-38-3-67l-42-39q-41-2-250 9l184-36c15-3 20-3 35 0l75 14 10-82c1-7 2-11 5-16l98-175q-71 176-87 235l23 51q22 6 64 25q33-16 62-24l23-51q-16-58-85-236"/>
</svg>
