<svg xmlns="http://www.w3.org/2000/svg" viewBox="0 0 16 16" width="16px" height="16px" style="background:#000">
  <path fill="#fff" d="m2 0h12a2 2 0 012 2v12a2 2 0 01-2 2h-12a2 2 0 01-2-2v-12a2 2 0 012-2"/>
  <path fill="#000" d="m5 2a.5.5 0 001 1a.5.5 0 00-1-1m5 0a.5.5 0 001 1a.5.5 0 00-1-1m-8.2 1.1a.5.5 0 00-.6.8c1.8 1.3 4 2.1 6.8 2.1s5-.8 6.8-2.1a.5.5 0 00-.6-.8c-1.7 1.1-3.2 1.9-6.2 1.9s-4.5-.8-6.2-1.9m-.8 3.9v5h1.5a1.5 1.5 0 001.118-2.5a1.5 1.5 0 00-1.1-2.5zm1 1h.5a.5.5 0 010 1h-.5zm0 2h.5a.5.5 0 010 1h-.5zm5.5-3h-.5a2 2 0 00-2 2v1a2 2 0 002 2h.5v-1h-.5a1 1 0 01-1-1v-1a1 1 0 011-1h.5zm3.5 1.5a1 1 0 00-3 0v3.5h1v-2h1v2h1zm-1 0a.5.5 0 00-1 0v.5h1zm2-1.5v5h1v-2h.5a1 1 0 000-3zm1 1h.5a.5.5 0 010 1h-.5z" />
</svg>
