<svg xmlns="http://www.w3.org/2000/svg" viewBox="0 0 135.46667 135.46667" height="512" width="512">
  <title>BCAP Smile</title>
  <rect ry="21" height="135.46667" width="135.46667" style="fill:#fff"/>
  <path style="stroke:#000;stroke-width:8.16;stroke-linecap:round" d="m48.6831 25.248521 h0"/>
  <path style="stroke:#000;stroke-width:8.16;stroke-linecap:round" d="m86.782425 25.248521 h0"/>
  <path style="fill:none;stroke:#000;stroke-width:5.44;stroke-linecap:round" d="m10.583776 30.691282 c0 0 22.315307 16.328285 57.148988 16.328285 34.833346 0 57.148996-16.328285 57.148996-16.328285"/>
  <path d="m4.2332799 59.265924 v42.333056 h8.4666151 4.233307 c7.013969 0 12.699919-5.685947 12.699919-12.699907 0-3.253303-1.224289-6.219613-3.235958-8.466613 2.011669-2.24701 3.235958-5.21332 3.235958-8.46662 0-7.013966-5.68595-12.699916-12.699919-12.699916 h-4.233307z m8.4666151 8.466614 h4.233307 c2.337991 0 4.233307 1.89531 4.233307 4.233302 0 2.338-1.895316 4.23331-4.233307 4.23331 h-4.233307z m0 16.933222 h4.233307 c2.337991 0 4.233307 1.89532 4.233307 4.233313 0 2.33799-1.895316 4.23331-4.233307 4.23331 h-4.233307z"/>
  <path d="m55.032601 59.265924 c-9.351961 0-16.933206 7.581264-16.933206 16.933206 v8.4666 c0 9.351933 7.581271 16.9332 16.933206 16.9332 h8.466603 v-8.466587 h-8.466603 c-4.675962 0-8.466604-3.79064-8.466604-8.466613 v-8.4666 c0-4.67597 3.790642-8.466602 8.466604-8.466602 h8.466603 v-8.466604z"/>
  <path d="m84.66562 59.265882 c-7.013946 0-12.699866 5.685926-12.699866 12.699868 v29.63302 h8.466571 V84.66562 h8.46659 v16.93315 h8.466569 V71.96575 c0-7.013942-5.685915-12.699868-12.699864-12.699868z m0 8.466583 c2.337975 0 4.233295 1.89531 4.233295 4.233285 v4.23329 h-8.46659 v-4.23329 c0-2.337975 1.89532-4.233285 4.233295-4.233285z"/>
  <path d="m131.22856 71.96653 c0-7.012629-5.68486-12.697497-12.6975-12.697497 l-12.69752-2e-6 v42.325019 h8.46503 V84.66404 h4.23249 c7.01264 1e-5 12.6975-5.68487 12.6975-12.69751z m-8.46499 0 c0 2.33755-1.89495 4.23251-4.23251 4.23251 h-4.23249 v-8.465005 h4.23249 c2.33756 0 4.23251 1.89496 4.23251 4.232495z"/>
</svg>
