<svg
  xmlns:dc="http://purl.org/dc/elements/1.1/"
  xmlns:cc="http://creativecommons.org/ns#"
  xmlns:rdf="http://www.w3.org/1999/02/22-rdf-syntax-ns#"
  xmlns:svg="http://www.w3.org/2000/svg"
  xmlns="http://www.w3.org/2000/svg"
  width="780"
  height="121.875029040160371410931584516890973379048"
  viewBox="0 0 135.46667 21.166673"
  version="1.1"
  id="svg8">
  <title
    id="title1078">Barry Cap Round</title>
    <defs
     id="defs2" />
    <metadata
      id="metadata5">
      <rdf:RDF>
        <cc:Work
         rdf:about="">
        <dc:format>image/svg+xml</dc:format>
        <dc:type
          rdf:resource="http://purl.org/dc/dcmitype/StillImage" />
        <dc:title>Barry Cap Round</dc:title>
      </cc:Work>
    </rdf:RDF>
  </metadata>
  <g
    style="stroke:none"
    id="layer1"
    transform="translate(0,-55.033333)"
    class="header-svg">
    <path
      transform="scale(0.26458333)"
      d="m 0,208 v 80 h 16 8 c 13.25483,0 24,-10.74517 24,-24 0,-6.148 -2.313629,-11.75366 -6.115234,-16 C 45.68637,243.75366 48,238.148 48,232 48,218.74517 37.25483,208 24,208 h -8 z m 16,16 h 8 c 4.418279,0 8,3.58172 8,8 0,4.41828 -3.581721,8 -8,8 h -8 z m 0,32 h 8 c 4.418279,0 8,3.58172 8,8 0,4.41828 -3.581721,8 -8,8 h -8 z"
      style="stroke:none;stroke-width:0.0999999;stroke-linecap:round;stroke-linejoin:round;stroke-miterlimit:4;stroke-dasharray:none;stroke-dashoffset:5;stroke-opacity:1;paint-order:normal"
      id="path1130-9" />
    <path
      id="path1130"
      style="stroke:none;stroke-width:0.0999999;stroke-linecap:round;stroke-linejoin:round;stroke-miterlimit:4;stroke-dasharray:none;stroke-dashoffset:5;stroke-opacity:1;paint-order:normal"
      d="m 88,208 c -13.254833,0 -24,10.74517 -24,24 v 56 h 16 v -32 h 16 v 32 h 16 v -56 c 0,-13.25483 -10.74517,-24 -24,-24 z m 0,16 c 4.418279,0 8,3.58172 8,8 v 8 H 80 v -8 c 0,-4.41828 3.581721,-8 8,-8 z"
      transform="scale(0.26458333)" />
    <path
      transform="scale(0.26458333)"
      d="m 128,208 v 80 h 16 c 1e-5,2e-5 0,-32 0,-32 h 8 c 4.41828,0 8,3.58172 8,8 v 24 h 16 v -24 c 0,-6.148 -2.31363,-11.75366 -6.11523,-16 3.8016,-4.24634 6.11523,-9.852 6.11523,-16 0,-13.25483 -10.74517,-24 -24,-24 h -8 z m 16,16 h 8 c 4.41828,0 8,3.58172 8,8 0,4.41828 -3.58172,8 -8,8 h -8 z"
      style="stroke:none;stroke-width:0.0999999;stroke-linecap:round;stroke-linejoin:round;stroke-miterlimit:4;stroke-dasharray:none;stroke-dashoffset:5;stroke-opacity:1;paint-order:normal"
      id="path1130-9-2" />
    <path
      transform="scale(0.26458333)"
      d="m 256,208 v 32 c 0,8.83654 7.16347,16 16,16 v 32 h 16 v -32 c 8.83662,0 16,-7.16346 16,-16 v -32 h -16 v 28 c 0,2.20914 -1.79084,4 -4,4 h -8 c -2.20913,0 -4,-1.79087 -4,-4 v -28 z"
      style="stroke:none;stroke-width:0.999999px;stroke-linecap:butt;stroke-linejoin:miter;stroke-opacity:1"
      id="path1102" />
    <path
      id="path1130-9-2-6"
      style="stroke:none;stroke-width:0.0264583;stroke-linecap:round;stroke-linejoin:round;stroke-miterlimit:4;stroke-dasharray:none;stroke-dashoffset:5;stroke-opacity:1;paint-order:normal"
      d="M 50.800001,55.033333 V 76.2 h 4.233333 c 3e-6,5e-6 0,-8.466667 0,-8.466667 h 2.116667 c 1.169003,0 2.116667,0.947663 2.116667,2.116667 v 6.35 h 4.233333 v -6.35 c 0,-1.626659 -0.612148,-3.109823 -1.617988,-4.233334 1.00584,-1.123511 1.617988,-2.606675 1.617988,-4.233333 0,-3.507007 -2.842993,-6.35 -6.35,-6.35 h -2.116667 z m 4.233333,4.233333 h 2.116667 c 1.169003,0 2.116667,0.947664 2.116667,2.116667 0,1.169003 -0.947664,2.116667 -2.116667,2.116667 h -2.116667 z" />
    <path
      transform="scale(0.26458333)"
      d="m 368,208 c -17.67313,0 -32,14.32691 -32,32 v 16 c 0,17.67307 14.32692,32 32,32 h 16 v -16 h -16 c -8.83653,0 -16,-7.16347 -16,-16 v -16 c 0,-8.83654 7.16347,-16 16,-16 h 16 v -16 z"
      style="stroke:none;stroke-width:0.999999px;stroke-linecap:butt;stroke-linejoin:miter;stroke-opacity:1"
      id="path1108" />
    <path
      d="m 112.18334,55.033333 c -3.50701,0 -6.35,2.842993 -6.35,6.35 V 76.2 h 4.23333 v -8.466667 h 4.23334 V 76.2 h 4.23333 V 61.383333 c 0,-3.507007 -2.84299,-6.35 -6.35,-6.35 z m 0,4.233333 c 1.169,0 2.11667,0.947664 2.11667,2.116667 V 63.5 h -4.23334 v -2.116667 c 0,-1.169003 0.94767,-2.116667 2.11667,-2.116667 z"
      style="stroke:none;stroke-width:0.0264583;stroke-linecap:round;stroke-linejoin:round;stroke-miterlimit:4;stroke-dasharray:none;stroke-dashoffset:5;stroke-opacity:1;paint-order:normal"
      id="path1130-6" />
    <path
      id="path1130-9-4"
      style="stroke:none;stroke-width:0.0264583;stroke-linecap:round;stroke-linejoin:round;stroke-miterlimit:4;stroke-dasharray:none;stroke-dashoffset:5;stroke-opacity:1;paint-order:normal"
      d="m 135.46667,61.383338 c 0,-3.507008 -2.84299,-6.35 -6.35,-6.35 l -6.35,-10e-7 v 21.166668 h 4.23334 v -8.466667 l 2.11666,10e-7 c 3.50701,2e-6 6.35,-2.842994 6.35,-6.350001 z m -4.23333,0 c 0,1.169003 -0.94766,2.116666 -2.11667,2.116666 h -2.11666 v -4.233333 h 2.11666 c 1.16901,0 2.11667,0.947664 2.11667,2.116667 z" />
  </g>
</svg>
