<svg xmlns="http://www.w3.org/2000/svg" viewBox="0 0 192 108">
  <path d="M0 0v108h192V0M20 28a1 1 0 0112-4a1 1 0 014 12a1 1 0 01-16-8m4 2a1 1 0 0013 18A1 1 0 0024 30m13 24A1 1 0 0151 30A1 1 0 0137 54M12 45c12-20 35-2 52-4s4-5 5-8m-4-1a1 1 0 0111 8A1 1 0 0165 32m3 36Q172 20 152 40M37 55q8 6 17 10t-2 0t7-5M156 6c-36 62-76 102 0 0M80 8l8 4L45 55M56 16a9 2 0 018 8a9 2 0 01-8-8m4-4-8 8q16-1 17-6t-3-9q35 9 42 13Q93 3 84 40m8-28a1 1 0 018 4a5 10 0 01-8-4m-34 0a1 1 0 014 0a1 1 0 01-4 0m46 20 20 32-56 4M92 52c4-16 16 4 16-12s8 12 12-4s3 12 12-4s4 12 12 0s0 12 12 0s0 12 12 4s0 8 8 8s0 4 8 4c-29 0-67 6-92 4M67 49l6 4c-4 3-2-7-6-4m3 2a1 1 0 01-5-4a1 1 0 015 4m4 3c-25 5 3-13-8 4S81 42 87 56s-30 6 17 11S85 51 121 61s27 10 8 2m-18 3 8 0-11 8M59 63a1 .1 15 01-7 5a1 1 0 0011 1a1 1 0 01-8-4a1 1 0 007 0a1 1 0 01-5-1a1 1 0 004-1a1 1 0 01-2 0l-5 15-5-12c15-8-6 6 10-3l5 13-5 2M22 69a1.5 1 20 01-6 5a1.5 1-20 016-5m-7 8a1 1.5 90 018 3a1.5 1-15 01-8-3m13 5L10 79l18 2L11 77l17 2 3-2L7 64l44 25L49 73l3 18C28 57 22 91 6 69Q56 59 40 93M3 77c-1 6 25 5 29 11C25 83-1 83 3 77m5 0L7 87l0-6 1-4 1 5 3-1 11 15M10 90q15-3 15-2t-15 2t0 1t0-5t18 4t26-3t-5 7t-9-1t-3 1m29-12 0 24 1-24 0 24-2-24 0 24 3-24-4 24 0-24 4 24 1-24-6 24 0-24 6 24 1-24-8 24 0-24-1 24L71 82l0 24L61 82l9 24L60 82l0 24L72 82l-14 24 1-24 0 24L58 82l14 24 1-24 0 24L57 82l0 24L56 82l19 24 0-24-1 24 0-24 2 24-20 0L76 82m14-3c-16 11 0 11-16 0c66 18-2 13 29-6a1 1 0 01-38 6m45 0-5 7 6-7-6 8 7-8-7 9 0-9 1 4 1-4-1 10 4-2-3 3 0-3 2-2-1 2 2 3-3-8 1-3 1 0-1 1 2 3-4-3 0-1-2 1 8 0-1 2 1-1-2 3-1 0-2 2-1-5 0 3 4 1 2-3-2 0 2 1-4-2 1 5-3 4-1 0 0-1 5-3 1 4-2-1 0 1 2-2-3 2 3-5 1 2-3-4 3 1-1 3 1 1-1 1 1 0 0 1m13-9a1 1 0 010 16c-16 0 0-16 0 0a1 1 0 01-16 0m23-17-20 24 24-20-4 0 0-4-4 8 8-4-12 8 8-12 4 4-6 2m23-26-32 18q0-17 6-1q-6-16 6-1q-12-15 2-6q-14-9 23 3m-5 9h6v6h-6l-8 8V75m14 13 8 8h-12m4-13 8-3v8l-8-3m-1-3 2-7h7m-13 8h4v4h-4m-13-26c59-2 51-15 34 4m-1 0q-1 0-1-2v-2h-1v2q0 2-1 2m1-4-2-1-1 0 5 2-1 0-2 0 6-1 1-1-2 1-6 1 2-3-1 3 4-4-4 5 3-3 0 3 1-4-2 0 4 1-2 0 1-1-2 3-3-3m-1 5c-6 2-7-3-13-1m1 3a1 1 0 01-5 2a1 2-22 015-2m-9 1a1 1 0 015-1a1 1 0 000 4a1 1 0 010-2a1 1 0 002 2m9-60h15V5m-10 10c-5-5 10-10 5 0c5-10-10-5-4 0c-6-5 9-10 3 0c6-10-9-5-2 0c-7-5 8-10 1 0m-3-5V5h15m-10 5V5h13m-9 4h2v2h-2m-14 1 15 1h-15m20 2a5 5 0 01-5 5v-5m-5 5a5 5 0 115 5a1 1 0 015 0a10 10 0 11-10 0m-59-16a10 10 0 11-1 1l18 17m-18-12a1 1 0 101 0m4-5a1 1 0 101 0m1 6a1 1 0 101 0m5 0a1 1 0 101 0m-11 4a1 1 0 101 0m5 2a1 1 0 101 0m4-13a1 1 0 101 0m-1 14a1 1 0 101 0m-14 0a1 1 0 101 0m5-17a1 1 0 101 0m-11 0 21 1-21 1 21 1-21 1 21 1-21 1 21 1-21 1 21 1-21 1 21 1-21 1 21 1-21 1 21 1-21 1 21 1-21 1 21 1-21 1a1 1 0 010-20m-9 9c9-9 9 11 0 2m0-3c9-6 9 10 0 4m0-5c9-3 9 9 0 6m1-7c8 0 8 8 0 8m0-9c8 3 8 7 0 10m1-11c7 6 7 6 0 12m1-13c6 9 6 5 0 14m1-15c5 12 5 4 0 16m1-17c4 15 4 3 0 18m1-19c3 18 3 2 0 20m1-21c2 21 2 1 0 22m-8-16 6 5 2-11m0 22-2-11-6 5"/>
  <!--Barry Cap 12/7/2021 & 13/7/2021-->
</svg>
