<svg xmlns="http://www.w3.org/2000/svg" viewBox="-20 0 80 40" id="svg">
  <title>25 Squares</title>
  <style>@import url(squares.css);</style>
  <script href="squares.js" />
  <g id="guides">
    <circle cy="4"  cx="4" />
    <circle cy="4"  cx="12" />
    <circle cy="4"  cx="20" />
    <circle cy="4"  cx="28" />
    <circle cy="4"  cx="36" />
    <circle cy="12" cx="4" />
    <circle cy="12" cx="12" />
    <circle cy="12" cx="20" />
    <circle cy="12" cx="28" />
    <circle cy="12" cx="36" />
    <circle cy="20" cx="4" />
    <circle cy="20" cx="12" />
    <circle cy="20" cx="20" />
    <circle cy="20" cx="28" />
    <circle cy="20" cx="36" />
    <circle cy="28" cx="4" />
    <circle cy="28" cx="12" />
    <circle cy="28" cx="20" />
    <circle cy="28" cx="28" />
    <circle cy="28" cx="36" />
    <circle cy="36" cx="4" />
    <circle cy="36" cx="12" />
    <circle cy="36" cx="20" />
    <circle cy="36" cx="28" />
    <circle cy="36" cx="36" />
  </g>
  <g id="button-lights">
    <g id="no-fill">
      <path id="sine-light"     d="m-9 4c0-1 1-1 1 0s1 1 1 0" />
      <path id="triangle-light" d="m-9 12 .5-1 1 2 .5-1" />
      <path id="square-light"   d="m-9 20v-1h1v2h1v-1" />
      <path id="sawtooth-light" d="m-9 28 1-1v2l1-1" />
      <path id="beep-light"     d="m-17.5 5c.4 0 .4-.5.4-1.3s.7-.8.7 0 .8.8.8 0 .7-.8.7 0 0 1.3.4 1.3" />
      <path id="piano-light"    d="m-16.8 13.5-.2-2 .5 0c1-.8 1 .8 0 0m1.5-1v3" />
      <path id="ocarina-light"  d="m-17 20.3c-.1-.2.5-.6 1-.9s1-.3 1-.1-.2.3-.3.5.1.5.2.6-.1.3-.2.2-.5-.5-.9-.4-.7.3-.8.1z" />
      <path id="drums-light"    d="m-17 27.5a1 .5 0 012 0 1 .5 0 01-2 0zm0 0v1a1 .5 0 002 0v-1" />
      <g id="random-lights">
        <circle id="r1-light" cx="48" cy="4" />
        <circle id="r2-light" cx="48" cy="12" />
        <circle id="r3-light" cx="48" cy="20" />
        <circle id="r4-light" cx="48" cy="28" />
        <circle id="r5-light" cx="48" cy="36" />
      </g>
      <g id="pitch-lights">
        <path id="pitch-plus-light"    d="m55 4h2m-1-1v2" />
        <path id="pitch-slider-part9"  d="m58  9.5h0" />
        <path id="pitch-slider-part8"  d="m58 10.5h0" />
        <path id="pitch-slider-part7"  d="m58 11.5h0" />
        <path id="pitch-slider-part6"  d="m57  9.5h0" />
        <path id="pitch-slider-part5"  d="m57 10.5h0" />
        <path id="pitch-slider-part4"  d="m57 11.5h0" />
        <path id="pitch-slider-part3"  d="m56  9.5h0" />
        <path id="pitch-slider-part2"  d="m56 10.5h0" />
        <path id="pitch-slider-part1"  d="m56 11.5h0" />
        <path id="pitch-slider-part-1" d="m56 12.5h0" />
        <path id="pitch-slider-part-2" d="m56 13.5h0" />
        <path id="pitch-slider-part-3" d="m56 14.5h0" />
        <path id="pitch-slider-part-4" d="m55 12.5h0" />
        <path id="pitch-slider-part-5" d="m55 13.5h0" />
        <path id="pitch-slider-part-6" d="m55 14.5h0" />
        <path id="pitch-slider-part-7" d="m54 12.5h0" />
        <path id="pitch-slider-part-8" d="m54 13.5h0" />
        <path id="pitch-slider-part-9" d="m54 14.5h0" />
        <path id="pitch-minus-light"   d="m55 20h2" />
      </g>
      <g id="appearance-lights">
        <path id="high-quality-light"   d="m-19 38h2m-1.7-.7 1.4 1.4m-.7-1.7v2m.7-1.7-1.4 1.4" />
        <path id="color-behavior-light" d="m-14 39a1 1 0 111-1c0 .5-.4.2-.6.4s.1.6-.4.6zm-.3-1.3h0m.3 1.3h0m-.3-1.3h0m.6 0h0m0 0h0m-.6.6h0m0 0h0m.7.1h0" />
        <path id="color-invert-light"   d="m-11 37h2v2h-2zm1.8.2-1.6 1.6 1.2-1.6-1.2 1.2.8-1.2-.8.8.4-.8-.4.4l0-.4" />
        <path id="color-hue-light"      d="m-6 37a1 1 0 010 2 1 1 0 010-2zm0 1 0-1" />
      </g>
    </g>
    <g id="record-lights">
      <path id="record-light"      d="m55 28c0-.55.45-1 1-1s1 .45 1 1-.45 1-1 1-1-.45-1-1z" />
      <path id="record-play-light" d="m55.2 37v-2l1.7 1v0z" />
    </g>
  </g>
  <g id="keys">
    <rect id="k01" onmouseover="key('01')" onmousedown="key('01', true)" />
    <rect id="k02" onmouseover="key('02')" onmousedown="key('02', true)" x="8" />
    <rect id="k03" onmouseover="key('03')" onmousedown="key('03', true)" x="16" />
    <rect id="k04" onmouseover="key('04')" onmousedown="key('04', true)" x="24" />
    <rect id="k05" onmouseover="key('05')" onmousedown="key('05', true)" x="32" />
    <rect id="k06" onmouseover="key('06')" onmousedown="key('06', true)" y="8" />
    <rect id="k07" onmouseover="key('07')" onmousedown="key('07', true)" y="8" x="8" />
    <rect id="k08" onmouseover="key('08')" onmousedown="key('08', true)" y="8" x="16" />
    <rect id="k09" onmouseover="key('09')" onmousedown="key('09', true)" y="8" x="24" />
    <rect id="k10" onmouseover="key('10')" onmousedown="key('10', true)" y="8" x="32" />
    <rect id="k11" onmouseover="key('11')" onmousedown="key('11', true)" y="16" />
    <rect id="k12" onmouseover="key('12')" onmousedown="key('12', true)" y="16" x="8" />
    <rect id="k13" onmouseover="key('13')" onmousedown="key('13', true)" y="16" x="16" />
    <rect id="k14" onmouseover="key('14')" onmousedown="key('14', true)" y="16" x="24" />
    <rect id="k15" onmouseover="key('15')" onmousedown="key('15', true)" y="16" x="32" />
    <rect id="k16" onmouseover="key('16')" onmousedown="key('16', true)" y="24" />
    <rect id="k17" onmouseover="key('17')" onmousedown="key('17', true)" y="24" x="8" />
    <rect id="k18" onmouseover="key('18')" onmousedown="key('18', true)" y="24" x="16" />
    <rect id="k19" onmouseover="key('19')" onmousedown="key('19', true)" y="24" x="24" />
    <rect id="k20" onmouseover="key('20')" onmousedown="key('20', true)" y="24" x="32" />
    <rect id="k21" onmouseover="key('21')" onmousedown="key('21', true)" y="32" />
    <rect id="k22" onmouseover="key('22')" onmousedown="key('22', true)" y="32" x="8" />
    <rect id="k23" onmouseover="key('23')" onmousedown="key('23', true)" y="32" x="16" />
    <rect id="k24" onmouseover="key('24')" onmousedown="key('24', true)" y="32" x="24" />
    <rect id="k25" onmouseover="key('25')" onmousedown="key('25', true)" y="32" x="32" />
    <g id="buttons">
      <rect id="sine"     onmousedown="changeSound('sine')"     x="-12" />
      <rect id="triangle" onmousedown="changeSound('triangle')" x="-12" y="8" />
      <rect id="square"   onmousedown="changeSound('square')"   x="-12" y="16" />
      <rect id="sawtooth" onmousedown="changeSound('sawtooth')" x="-12" y="24" />
      <rect id="beep"     onmousedown="changeSound('beep')"     x="-20" />
      <rect id="piano"    onmousedown="changeSound('piano')"    x="-20" y="8" />
      <rect id="ocarina"  onmousedown="changeSound('ocarina')"  x="-20" y="16" />
      <rect id="drums"    onmousedown="changeSound('drums')"    x="-20" y="24" />
      <rect id="r1" onmousedown="randomNotes('1')" x="44" />
      <rect id="r2" onmousedown="randomNotes('2')" x="44" y="8" />
      <rect id="r3" onmousedown="randomNotes('3')" x="44" y="16" />
      <rect id="r4" onmousedown="randomNotes('4')" x="44" y="24" />
      <rect id="r5" onmousedown="randomNotes('5')" x="44" y="32" />
      <rect id="pitch-plus"   onmousedown="changePitchPlus()"  x="52" />
      <rect id="pitch-slider" onmousedown="changePitchReset()" x="52" y="8" />
      <rect id="pitch-minus"  onmousedown="changePitchMinus()" x="52" y="16" />
      <rect id="record"      onmousedown="startRecording()" x="52" y="24" />
      <rect id="record-play" onmousedown="playRecording()"  x="52" y="32" />
      <g id="small-keys">
        <rect id="high-quality"   onmousedown="changeQuality()" x="-20" y="36" />
        <rect id="color-behavior" onmousedown="colorBehavior()" x="-16" y="36" />
        <rect id="color-invert"   onmousedown="colorInvert()"   x="-12" y="36" />
        <rect id="color-hue"      onmousedown="colorHue()"      x="-8"  y="36" />
      </g>
    </g>
  </g>
  <!--BCAP 10:34 19/3/2022-->
</svg>
