<svg xmlns="http://www.w3.org/2000/svg" viewBox="-20 0 80 40" id="svg">
  <title>25 Squares</title>
  <style>
    svg { background: #222; }
    .high-quality { filter: saturate(4); }
    #keys rect {
      width: 8px;
      height: 8px;
      fill: #0000;
      stroke: #fff;
      stroke-width: 0;
      opacity: .5;
    }
    .high-quality #keys rect { filter: drop-shadow(0 0 10px #fff); }
    #keys rect:hover {
      fill: #fff;
      transition: .1s;
    }
    @keyframes key-pressed {
      0% {
        opacity: 1;
        stroke-width: 10px;
      }
      100% { opacity: 0; }
    }
    .pressed { animation: key-pressed 1s; }
    #guides * { transition: .2s; }
    #guides circle {
      r: .5px;
      fill: #000;
    }
    #button-lights * {
      fill: none;
      stroke: #000;
      stroke-width: .5px;
      stroke-linecap: round;
      r: 1px;
      transition: .2s;
    }
    #button-lights *.triggered { stroke: #fff; }
    .high-quality #button-lights *.triggered { filter: drop-shadow(0 0 1px #fff); }
    #buttons *:active {
      stroke-width: 1px;
      fill-opacity: 0;
    }
    #keys rect.color-1 { stroke: #f00; }
    .high-quality #keys rect.color-1 { filter: drop-shadow(0 0 10px #f00); }
    #keys rect.color-2 { stroke: #ff0; }
    .high-quality #keys rect.color-2 { filter: drop-shadow(0 0 10px #ff0); }
    #keys rect.color-3 { stroke: #0f0; }
    .high-quality #keys rect.color-3 { filter: drop-shadow(0 0 10px #0f0); }
    #keys rect.color-4 { stroke: #0ff; }
    .high-quality #keys rect.color-4 { filter: drop-shadow(0 0 10px #0ff); }
    #keys rect.color-5 { stroke: #00f; }
    .high-quality #keys rect.color-5 { filter: drop-shadow(0 0 10px #00f); }
    #keys rect.color-6 { stroke: #f0f; }
    .high-quality #keys rect.color-6 { filter: drop-shadow(0 0 10px #f0f); }
    #keys rect.color-1:hover { fill: #f00; }
    #keys rect.color-2:hover { fill: #ff0; }
    #keys rect.color-3:hover { fill: #0f0; }
    #keys rect.color-4:hover { fill: #0ff; }
    #keys rect.color-5:hover { fill: #00f; }
    #keys rect.color-6:hover { fill: #f0f; }
  </style>
  <script href="squares.js" />
  <g id="guides">
    <circle cy="4"  cx="4" />
    <circle cy="4"  cx="12" />
    <circle cy="4"  cx="20" />
    <circle cy="4"  cx="28" />
    <circle cy="4"  cx="36" />
    <circle cy="12" cx="4" />
    <circle cy="12" cx="12" />
    <circle cy="12" cx="20" />
    <circle cy="12" cx="28" />
    <circle cy="12" cx="36" />
    <circle cy="20" cx="4" />
    <circle cy="20" cx="12" />
    <circle cy="20" cx="20" />
    <circle cy="20" cx="28" />
    <circle cy="20" cx="36" />
    <circle cy="28" cx="4" />
    <circle cy="28" cx="12" />
    <circle cy="28" cx="20" />
    <circle cy="28" cx="28" />
    <circle cy="28" cx="36" />
    <circle cy="36" cx="4" />
    <circle cy="36" cx="12" />
    <circle cy="36" cx="20" />
    <circle cy="36" cx="28" />
    <circle cy="36" cx="36" />
 </g>
  <g id="button-lights">
    <path id="sine-light"     d="m-9 4c0-1 1-1 1 0s1 1 1 0" />
    <path id="triangle-light" d="m-9 12 .5-1 1 2 .5-1" />
    <path id="square-light"   d="m-9 20v-1h1v2h1v-1" />
    <path id="sawtooth-light" d="m-9 28 1-1v2l1-1" />
    <path id="beep-light"     d="m-9.5 37c.4 0 .4-.5.4-1.3s.7-.8.7 0 .8.8.8 0 .7-.8.7 0 0 1.3.4 1.3" />
    <path id="drums-light"    d="m-17 3.5a1 .5 0 012 0 1 .5 0 01-2 0zm0 0v1a1 .5 0 002 0v-1" />
    <path id="piano-light"    d="m-16.8 13.5-.2-2 .5 0c1-.8 1 .8 0 0m1.5-1v3" />
    <circle id="r1-light" cx="48" cy="4" />
    <circle id="r2-light" cx="48" cy="12" />
    <circle id="r3-light" cx="48" cy="20" />
    <circle id="r4-light" cx="48" cy="28" />
    <circle id="r5-light" cx="48" cy="36" />
    <g id="pitch-lights">
      <path id="pitch-plus-light" d="m55 4h2m-1-1v2" />
      <path id="pitch-slider-part9"  d="m58  9.5h0" />
      <path id="pitch-slider-part8"  d="m58 10.5h0" />
      <path id="pitch-slider-part7"  d="m58 11.5h0" />
      <path id="pitch-slider-part6"  d="m57  9.5h0" />
      <path id="pitch-slider-part5"  d="m57 10.5h0" />
      <path id="pitch-slider-part4"  d="m57 11.5h0" />
      <path id="pitch-slider-part3"  d="m56  9.5h0" />
      <path id="pitch-slider-part2"  d="m56 10.5h0" />
      <path id="pitch-slider-part1"  d="m56 11.5h0" />
      <path id="pitch-slider-part-1" d="m56 12.5h0" />
      <path id="pitch-slider-part-2" d="m56 13.5h0" />
      <path id="pitch-slider-part-3" d="m56 14.5h0" />
      <path id="pitch-slider-part-4" d="m55 12.5h0" />
      <path id="pitch-slider-part-5" d="m55 13.5h0" />
      <path id="pitch-slider-part-6" d="m55 14.5h0" />
      <path id="pitch-slider-part-7" d="m54 12.5h0" />
      <path id="pitch-slider-part-8" d="m54 13.5h0" />
      <path id="pitch-slider-part-9" d="m54 14.5h0" />
      <path id="pitch-minus-light" d="m55 20h2" />
    </g>
    <path id="high-quality-light" d="m-17 36h2m-2-1 2 2m-1-2v2m1-2-2 2" />
  </g>
  <g id="keys">
    <rect id="01" onmouseover="key('01')" onmousedown="key('01', true)" />
    <rect id="02" onmouseover="key('02')" onmousedown="key('02', true)" x="8" />
    <rect id="03" onmouseover="key('03')" onmousedown="key('03', true)" x="16" />
    <rect id="04" onmouseover="key('04')" onmousedown="key('04', true)" x="24" />
    <rect id="05" onmouseover="key('05')" onmousedown="key('05', true)" x="32" />
    <rect id="06" onmouseover="key('06')" onmousedown="key('06', true)" y="8" />
    <rect id="07" onmouseover="key('07')" onmousedown="key('07', true)" y="8" x="8" />
    <rect id="08" onmouseover="key('08')" onmousedown="key('08', true)" y="8" x="16" />
    <rect id="09" onmouseover="key('09')" onmousedown="key('09', true)" y="8" x="24" />
    <rect id="10" onmouseover="key('10')" onmousedown="key('10', true)" y="8" x="32" />
    <rect id="11" onmouseover="key('11')" onmousedown="key('11', true)" y="16" />
    <rect id="12" onmouseover="key('12')" onmousedown="key('12', true)" y="16" x="8" />
    <rect id="13" onmouseover="key('13')" onmousedown="key('13', true)" y="16" x="16" />
    <rect id="14" onmouseover="key('14')" onmousedown="key('14', true)" y="16" x="24" />
    <rect id="15" onmouseover="key('15')" onmousedown="key('15', true)" y="16" x="32" />
    <rect id="16" onmouseover="key('16')" onmousedown="key('16', true)" y="24" />
    <rect id="17" onmouseover="key('17')" onmousedown="key('17', true)" y="24" x="8" />
    <rect id="18" onmouseover="key('18')" onmousedown="key('18', true)" y="24" x="16" />
    <rect id="19" onmouseover="key('19')" onmousedown="key('19', true)" y="24" x="24" />
    <rect id="20" onmouseover="key('20')" onmousedown="key('20', true)" y="24" x="32" />
    <rect id="21" onmouseover="key('21')" onmousedown="key('21', true)" y="32" />
    <rect id="22" onmouseover="key('22')" onmousedown="key('22', true)" y="32" x="8" />
    <rect id="23" onmouseover="key('23')" onmousedown="key('23', true)" y="32" x="16" />
    <rect id="24" onmouseover="key('24')" onmousedown="key('24', true)" y="32" x="24" />
    <rect id="25" onmouseover="key('25')" onmousedown="key('25', true)" y="32" x="32" />
    <g id="buttons">
      <rect id="sine"     onmousedown="changeSound('sine')"     x="-12" />
      <rect id="triangle" onmousedown="changeSound('triangle')" x="-12" y="8" />
      <rect id="square"   onmousedown="changeSound('square')"   x="-12" y="16" />
      <rect id="sawtooth" onmousedown="changeSound('sawtooth')" x="-12" y="24" />
      <rect id="beep"     onmousedown="changeSound('beep')"     x="-12" y="32" />
      <rect id="drums"    onmousedown="changeSound('drums')"    x="-20" />
      <rect id="piano"    onmousedown="changeSound('piano')"    x="-20" y="8" />
      <rect id="r1" onmousedown="randomNotes('1')" x="44" />
      <rect id="r2" onmousedown="randomNotes('2')" x="44" y="8" />
      <rect id="r3" onmousedown="randomNotes('3')" x="44" y="16" />
      <rect id="r4" onmousedown="randomNotes('4')" x="44" y="24" />
      <rect id="r5" onmousedown="randomNotes('5')" x="44" y="32" />
      <rect id="pitch-plus"   onmousedown="changePitchPlus()" x="52" />
      <rect id="pitch-slider" onmousedown="changePitchReset()" x="52" y="8" />
      <rect id="pitch-minus"  onmousedown="changePitchMinus()" x="52" y="16" />
      <rect id="high-quality" onmousedown="changeQuality()" x="-20" y="32" />
    </g>
  </g>
  <!--BCAP 19:05 9/3/2022-->
</svg>
